PathFileType	4	(X/Y/Z)	15_coords_data.trc
DataRate	CameraRate	NumFrames	NumMarkers	Units	OrigDataRate	OrigDataStartFrame	OrigNumFrames
30.0	30.0	5	21	m	30.0	38	75
Frame#	Time	THUMB_TIP	THUMB_IP	THUMB_MCP	THUMB_CMC	INDEX_TIP	INDEX_DIP	INDEX_PIP	INDEX_MCP	MIDDLE_TIP	MIDDLE_DIP	MIDDLE_PIP	MIDDLE_MCP	RING_TIP	RING_DIP	RING_PIP	RING_MCP	PINKY_TIP	PINKY_DIP	PINKY_PIP	PINKY_MCP	WRIST
X1	Y1	Z1	X2	Y2	Z2	X3	Y3	Z3	X4	Y4	Z4	X5	Y5	Z5	X6	Y6	Z6	X7	Y7	Z7	X8	Y8	Z8	X9	Y9	Z9	X10	Y10	Z10	X11	Y11	Z11	X12	Y12	Z12	X13	Y13	Z13	X14	Y14	Z14	X15	Y15	Z15	X16	Y16	Z16	X17	Y17	Z17	X18	Y18	Z18	X19	Y19	Z19	X20	Y20	Z20	X21	Y21	Z21
37	1.2333333333333334	-0.0447047004699707	-0.04799530029296875	0.921510009765625	-0.03772499847412109	-0.029947999954223634	0.938833984375	-0.042786800384521484	-0.012209500312805176	0.9601690063476562	-0.03953889846801758	0.016174100875854493	0.979416015625	0.007625699996948242	-0.007452539920806885	0.8515330200195312	-0.005065619945526123	-0.001991680026054382	0.8689320068359375	-0.016430200576782225	0.0032225499153137197	0.888208984375	-0.02597610092163086	0.009655389785766601	0.9224119873046875	0.017842300415039064	0.03366339874267578	0.8376790161132812	0.00700108003616333	0.03367300033569336	0.8594600219726563	-0.005569789886474609	0.0331349983215332	0.8844879760742187	-0.01660530090332031	0.030831399917602538	0.9211539916992187	0.03166909980773926	0.051402400970458985	0.8578660278320313	0.019645500183105468	0.05199539947509765	0.8773140258789063	0.0069329400062561036	0.0517760009765625	0.8988800048828125	-0.005718110084533691	0.04667100143432617	0.9286329956054687	0.04233359909057617	0.08246869659423828	0.9006259765625	0.02959239959716797	0.07657219696044922	0.9136060180664063	0.01857349967956543	0.07036229705810547	0.9253499755859375	0.002625829935073852	0.05927130126953125	0.9426810302734375	-0.051823001861572265	0.04788850021362305	0.9934199829101562
38	1.2666666666666666	-0.04071680068969727	-0.04858710098266601	0.92214599609375	-0.03412929916381836	-0.03049519920349121	0.939791015625	-0.03956330108642578	-0.013563799858093261	0.9618590087890625	-0.03706290054321289	0.014537699699401855	0.9813770141601562	0.007232759952545166	-0.002537620067596435	0.8517249755859375	-0.0055346498489379885	0.001812459945678711	0.8694639892578125	-0.016769699096679688	0.005731400012969971	0.8889240112304687	-0.025436500549316406	0.010378600120544434	0.9234429931640625	0.013102800369262695	0.040575599670410155	0.8383510131835937	0.003339580059051513	0.039001998901367185	0.860364013671875	-0.008299619674682616	0.036765201568603516	0.885739990234375	-0.01759499931335449	0.03220539855957031	0.9225040283203125	0.027412300109863282	0.05879410171508789	0.8584180297851562	0.015834099769592287	0.05763919830322266	0.8784210205078125	0.0038788599967956544	0.055608798980712894	0.9004749755859375	-0.007308330059051514	0.04845759963989258	0.9302849731445313	0.03872480010986328	0.08840329742431641	0.9029979858398437	0.026746299743652342	0.08097989654541016	0.9158569946289062	0.016109899520874025	0.07366570281982422	0.9274810180664063	0.000790504992008209	0.06078260040283203	0.9448159790039062	-0.05092250061035156	0.045574901580810546	0.9963380126953125
39	1.3	-0.03549169921875	-0.050265701293945315	0.9252919921875	-0.030073699951171876	-0.03147739982604981	0.9423389892578125	-0.0362672004699707	-0.01448740005493164	0.9642760009765625	-0.03449570083618164	0.014008299827575683	0.983666015625	0.005556399822235107	3.5473298281431006e-05	0.8525700073242187	-0.006979129791259766	0.003809890031814575	0.870333984375	-0.017928199768066408	0.007262529850006103	0.8902880249023437	-0.02531879997253418	0.011081100463867188	0.9254190063476563	0.009205920219421387	0.044075698852539064	0.8394290161132812	0.00018276999890804203	0.04171179962158203	0.8615809936523438	-0.010388099670410156	0.0385619010925293	0.8872219848632813	-0.018316499710083006	0.03315340042114258	0.9241619873046875	0.02440119934082031	0.06297119903564453	0.859677001953125	0.01336989974975586	0.06084700012207031	0.8799769897460937	0.001953830003738403	0.05777370071411133	0.9021619873046876	-0.007957630157470703	0.049458499908447265	0.9318610229492188	0.03783950042724609	0.09129679870605469	0.9061749877929688	0.026079700469970702	0.08307170104980469	0.9189539794921875	0.015711000442504883	0.07517489624023438	0.929989013671875	0.000420224010944366	0.06162049865722656	0.9467440185546875	-0.04938610076904297	0.04427899932861328	0.998458984375
40	1.3333333333333333	-0.030180200576782227	-0.05111130142211914	0.927177978515625	-0.026055999755859375	-0.03178709983825684	0.9443599853515625	-0.03315769958496094	-0.015074600219726562	0.96639599609375	-0.03223809814453125	0.013512999534606933	0.985427001953125	0.004287449836730957	0.002835059881210327	0.8538369750976562	-0.008374440193176269	0.005985219955444336	0.871468017578125	-0.019044200897216798	0.0089058198928833	0.891572021484375	-0.025402799606323242	0.011836000442504883	0.92697900390625	0.0062731499671936026	0.04748410034179688	0.8403499755859375	-0.0024599399566650392	0.044430198669433596	0.86297900390625	-0.01256820011138916	0.0406161994934082	0.8887139892578125	-0.019485599517822267	0.03410089874267578	0.9257769775390625	0.02168950080871582	0.06724240112304687	0.861302978515625	0.010998100280761718	0.06404759979248047	0.8817449951171875	-1.6519699245691e-05	0.059976200103759765	0.9039420166015625	-0.009136469841003417	0.050594200134277345	0.9337360229492188	0.03666439819335938	0.09374759674072265	0.9093660278320312	0.02516390037536621	0.08491429901123047	0.921823974609375	0.014899399757385254	0.07646399688720704	0.9325050048828125	-0.00036768001317977905	0.06239550018310547	0.948677001953125	-0.04811470031738281	0.04299359893798828	1.0008499755859375
41	1.3666666666666667	-0.027170400619506836	-0.052229000091552735	0.9295650024414063	-0.023948699951171874	-0.03248630142211914	0.9464559936523438	-0.031802000045776366	-0.015543100357055663	0.9683209838867187	-0.031125	0.013166999816894532	0.986906005859375	0.003085619926452636	0.004531859874725342	0.8548569946289063	-0.009670900344848634	0.007386670112609863	0.87243701171875	-0.020427499771118164	0.009839969635009766	0.8923880004882813	-0.026052200317382812	0.01221339988708496	0.9282769775390625	0.005143939971923828	0.049995601654052736	0.8415250244140625	-0.00372406005859375	0.04640679931640625	0.8641900024414062	-0.013853300094604492	0.04192010116577148	0.8899929809570313	-0.020421499252319335	0.034646800994873043	0.9272219848632812	0.020075700759887696	0.06957350158691407	0.8625339965820312	0.009627229690551757	0.0657041015625	0.8831259765625	-0.0011282399892807	0.061156200408935546	0.90527001953125	-0.009879480361938477	0.05109130096435547	0.9350139770507813	0.03604850006103515	0.09442980194091796	0.9111190185546875	0.024598100662231445	0.08544730377197265	0.9234810180664063	0.014256600379943848	0.07685579681396484	0.9342059936523438	-0.0009727399945259091	0.06272620010375976	0.9501840209960938	-0.047368301391601565	0.04237409973144531	1.002489990234375
